P3
9 9
255
050 050 050  050 050 050  050 050 050  050 050 050  050 050 050  050 050 050  050 050 050  050 050 050  050 050 050  
050 050 050  050 050 050  051 050 050  054 051 050  057 052 051  054 051 050  051 050 050  050 050 050  050 050 050  
050 050 050  051 050 050  057 053 051  080 062 056  099 070 060  080 062 056  057 053 051  051 050 050  050 050 050  
050 050 050  051 051 051  068 062 058  130 105 087  182 141 112  130 105 087  068 062 058  051 051 051  050 050 050  
050 050 050  051 052 052  068 070 069  130 141 136  182 200 192  130 141 136  068 070 069  051 052 052  050 050 050  
050 050 050  051 051 051  057 062 066  080 105 123  099 141 170  080 105 123  057 062 066  051 051 051  050 050 050  
050 050 050  050 050 050  051 053 055  054 062 073  057 070 087  054 062 073  051 053 055  050 050 050  050 050 050  
050 050 050  050 050 050  050 050 051  050 051 053  050 052 054  050 051 053  050 050 051  050 050 050  050 050 050  
050 050 050  050 050 050  050 050 050  050 050 050  050 050 050  050 050 050  050 050 050  050 050 050  050 050 050  
