P3
1 200
255
255 196 128
255 220 180
255 196 128
255 220 180
255 196 128
255 220 180
255 196 128
255 220 180
255 196 128
255 220 180
255 196 128
255 220 180
255 196 128
255 220 180
255 196 128
255 220 180
255 196 128
255 220 180
255 196 128
255 220 180
255 196 128
255 220 180
255 196 128
255 220 180
255 196 128
255 220 180
255 196 128
255 220 180
255 196 128
255 220 180
255 196 128
255 220 180
255 196 128
255 220 180
255 196 128
255 220 180
255 196 128
255 220 180
255 196 128
255 220 180
255 196 128
255 220 180
255 196 128
255 220 180
255 196 128
255 220 180
255 196 128
255 220 180
255 196 128
255 220 180
255 196 128
255 220 180
255 196 128
255 220 180
255 196 128
255 220 180
255 196 128
255 220 180
255 196 128
255 220 180
255 196 128
255 220 180
255 196 128
255 220 180
255 196 128
255 220 180
255 196 128
255 220 180
255 196 128
255 220 180
255 196 128
255 220 180
255 196 128
255 220 180
255 196 128
255 220 180
255 196 128
255 220 180
255 196 128
255 220 180
255 196 128
255 220 180
255 196 128
255 220 180
255 196 128
255 220 180
255 196 128
255 220 180
255 196 128
255 220 180
255 196 128
255 220 180
255 196 128
255 220 180
255 196 128
255 220 180
255 196 128
255 220 180
255 196 128
255 220 180

128 187 255
196 233 255
128 187 255
196 233 255
128 187 255
196 233 255
128 187 255
196 233 255
128 187 255
196 233 255
128 187 255
196 233 255
128 187 255
196 233 255
128 187 255
196 233 255
128 187 255
196 233 255
128 187 255
196 233 255
128 187 255
196 233 255
128 187 255
196 233 255
128 187 255
196 233 255
128 187 255
196 233 255
128 187 255
196 233 255
128 187 255
196 233 255
128 187 255
196 233 255
128 187 255
196 233 255
128 187 255
196 233 255
128 187 255
196 233 255
128 187 255
196 233 255
128 187 255
196 233 255
128 187 255
196 233 255
128 187 255
196 233 255
128 187 255
196 233 255
128 187 255
196 233 255
128 187 255
196 233 255
128 187 255
196 233 255
128 187 255
196 233 255
128 187 255
196 233 255
128 187 255
196 233 255
128 187 255
196 233 255
128 187 255
196 233 255
128 187 255
196 233 255
128 187 255
196 233 255
128 187 255
196 233 255
128 187 255
196 233 255
128 187 255
196 233 255
128 187 255
196 233 255
128 187 255
196 233 255
128 187 255
196 233 255
128 187 255
196 233 255
128 187 255
196 233 255
128 187 255
196 233 255
128 187 255
196 233 255
128 187 255
196 233 255
128 187 255
196 233 255
128 187 255
196 233 255
128 187 255
196 233 255
128 187 255
196 233 255
