P3
18 12
255
0 0 0
0 0 10
0 0 41
0 0 92
0 0 163
0 0 255
0 10 0
0 10 10
0 10 41
0 10 92
0 10 163
0 10 255
0 41 0
0 41 10
0 41 41
0 41 92
0 41 163
0 41 255
0 92 0
0 92 10
0 92 41
0 92 92
0 92 163
0 92 255
0 163 0
0 163 10
0 163 41
0 163 92
0 163 163
0 163 255
0 255 0
0 255 10
0 255 41
0 255 92
0 255 163
0 255 255
10 0 0
10 0 10
10 0 41
10 0 92
10 0 163
10 0 255
10 10 0
10 10 10
10 10 41
10 10 92
10 10 163
10 10 255
10 41 0
10 41 10
10 41 41
10 41 92
10 41 163
10 41 255
10 92 0
10 92 10
10 92 41
10 92 92
10 92 163
10 92 255
10 163 0
10 163 10
10 163 41
10 163 92
10 163 163
10 163 255
10 255 0
10 255 10
10 255 41
10 255 92
10 255 163
10 255 255
41 0 0
41 0 10
41 0 41
41 0 92
41 0 163
41 0 255
41 10 0
41 10 10
41 10 41
41 10 92
41 10 163
41 10 255
41 41 0
41 41 10
41 41 41
41 41 92
41 41 163
41 41 255
41 92 0
41 92 10
41 92 41
41 92 92
41 92 163
41 92 255
41 163 0
41 163 10
41 163 41
41 163 92
41 163 163
41 163 255
41 255 0
41 255 10
41 255 41
41 255 92
41 255 163
41 255 255
92 0 0
92 0 10
92 0 41
92 0 92
92 0 163
92 0 255
92 10 0
92 10 10
92 10 41
92 10 92
92 10 163
92 10 255
92 41 0
92 41 10
92 41 41
92 41 92
92 41 163
92 41 255
92 92 0
92 92 10
92 92 41
92 92 92
92 92 163
92 92 255
92 163 0
92 163 10
92 163 41
92 163 92
92 163 163
92 163 255
92 255 0
92 255 10
92 255 41
92 255 92
92 255 163
92 255 255
163 0 0
163 0 10
163 0 41
163 0 92
163 0 163
163 0 255
163 10 0
163 10 10
163 10 41
163 10 92
163 10 163
163 10 255
163 41 0
163 41 10
163 41 41
163 41 92
163 41 163
163 41 255
163 92 0
163 92 10
163 92 41
163 92 92
163 92 163
163 92 255
163 163 0
163 163 10
163 163 41
163 163 92
163 163 163
163 163 255
163 255 0
163 255 10
163 255 41
163 255 92
163 255 163
163 255 255
255 0 0
255 0 10
255 0 41
255 0 92
255 0 163
255 0 255
255 10 0
255 10 10
255 10 41
255 10 92
255 10 163
255 10 255
255 41 0
255 41 10
255 41 41
255 41 92
255 41 163
255 41 255
255 92 0
255 92 10
255 92 41
255 92 92
255 92 163
255 92 255
255 163 0
255 163 10
255 163 41
255 163 92
255 163 163
255 163 255
255 255 0
255 255 10
255 255 41
255 255 92
255 255 163
255 255 255
