P3
18 12
255
0 0 0
0 0 14
0 0 49
0 0 102
0 0 171
0 0 255
0 14 0
0 14 14
0 14 49
0 14 102
0 14 171
0 14 255
0 49 0
0 49 14
0 49 49
0 49 102
0 49 171
0 49 255
0 102 0
0 102 14
0 102 49
0 102 102
0 102 171
0 102 255
0 171 0
0 171 14
0 171 49
0 171 102
0 171 171
0 171 255
0 255 0
0 255 14
0 255 49
0 255 102
0 255 171
0 255 255
14 0 0
14 0 14
14 0 49
14 0 102
14 0 171
14 0 255
14 14 0
14 14 14
14 14 49
14 14 102
14 14 171
14 14 255
14 49 0
14 49 14
14 49 49
14 49 102
14 49 171
14 49 255
14 102 0
14 102 14
14 102 49
14 102 102
14 102 171
14 102 255
14 171 0
14 171 14
14 171 49
14 171 102
14 171 171
14 171 255
14 255 0
14 255 14
14 255 49
14 255 102
14 255 171
14 255 255
49 0 0
49 0 14
49 0 49
49 0 102
49 0 171
49 0 255
49 14 0
49 14 14
49 14 49
49 14 102
49 14 171
49 14 255
49 49 0
49 49 14
49 49 49
49 49 102
49 49 171
49 49 255
49 102 0
49 102 14
49 102 49
49 102 102
49 102 171
49 102 255
49 171 0
49 171 14
49 171 49
49 171 102
49 171 171
49 171 255
49 255 0
49 255 14
49 255 49
49 255 102
49 255 171
49 255 255
102 0 0
102 0 14
102 0 49
102 0 102
102 0 171
102 0 255
102 14 0
102 14 14
102 14 49
102 14 102
102 14 171
102 14 255
102 49 0
102 49 14
102 49 49
102 49 102
102 49 171
102 49 255
102 102 0
102 102 14
102 102 49
102 102 102
102 102 171
102 102 255
102 171 0
102 171 14
102 171 49
102 171 102
102 171 171
102 171 255
102 255 0
102 255 14
102 255 49
102 255 102
102 255 171
102 255 255
171 0 0
171 0 14
171 0 49
171 0 102
171 0 171
171 0 255
171 14 0
171 14 14
171 14 49
171 14 102
171 14 171
171 14 255
171 49 0
171 49 14
171 49 49
171 49 102
171 49 171
171 49 255
171 102 0
171 102 14
171 102 49
171 102 102
171 102 171
171 102 255
171 171 0
171 171 14
171 171 49
171 171 102
171 171 171
171 171 255
171 255 0
171 255 14
171 255 49
171 255 102
171 255 171
171 255 255
255 0 0
255 0 14
255 0 49
255 0 102
255 0 171
255 0 255
255 14 0
255 14 14
255 14 49
255 14 102
255 14 171
255 14 255
255 49 0
255 49 14
255 49 49
255 49 102
255 49 171
255 49 255
255 102 0
255 102 14
255 102 49
255 102 102
255 102 171
255 102 255
255 171 0
255 171 14
255 171 49
255 171 102
255 171 171
255 171 255
255 255 0
255 255 14
255 255 49
255 255 102
255 255 171
255 255 255
