P3
18 12
255
0 0 0
0 0 12
0 0 45
0 0 97
0 0 167
0 0 255
0 12 0
0 12 12
0 12 45
0 12 97
0 12 167
0 12 255
0 45 0
0 45 12
0 45 45
0 45 97
0 45 167
0 45 255
0 97 0
0 97 12
0 97 45
0 97 97
0 97 167
0 97 255
0 167 0
0 167 12
0 167 45
0 167 97
0 167 167
0 167 255
0 255 0
0 255 12
0 255 45
0 255 97
0 255 167
0 255 255
12 0 0
12 0 12
12 0 45
12 0 97
12 0 167
12 0 255
12 12 0
12 12 12
12 12 45
12 12 97
12 12 167
12 12 255
12 45 0
12 45 12
12 45 45
12 45 97
12 45 167
12 45 255
12 97 0
12 97 12
12 97 45
12 97 97
12 97 167
12 97 255
12 167 0
12 167 12
12 167 45
12 167 97
12 167 167
12 167 255
12 255 0
12 255 12
12 255 45
12 255 97
12 255 167
12 255 255
45 0 0
45 0 12
45 0 45
45 0 97
45 0 167
45 0 255
45 12 0
45 12 12
45 12 45
45 12 97
45 12 167
45 12 255
45 45 0
45 45 12
45 45 45
45 45 97
45 45 167
45 45 255
45 97 0
45 97 12
45 97 45
45 97 97
45 97 167
45 97 255
45 167 0
45 167 12
45 167 45
45 167 97
45 167 167
45 167 255
45 255 0
45 255 12
45 255 45
45 255 97
45 255 167
45 255 255
97 0 0
97 0 12
97 0 45
97 0 97
97 0 167
97 0 255
97 12 0
97 12 12
97 12 45
97 12 97
97 12 167
97 12 255
97 45 0
97 45 12
97 45 45
97 45 97
97 45 167
97 45 255
97 97 0
97 97 12
97 97 45
97 97 97
97 97 167
97 97 255
97 167 0
97 167 12
97 167 45
97 167 97
97 167 167
97 167 255
97 255 0
97 255 12
97 255 45
97 255 97
97 255 167
97 255 255
167 0 0
167 0 12
167 0 45
167 0 97
167 0 167
167 0 255
167 12 0
167 12 12
167 12 45
167 12 97
167 12 167
167 12 255
167 45 0
167 45 12
167 45 45
167 45 97
167 45 167
167 45 255
167 97 0
167 97 12
167 97 45
167 97 97
167 97 167
167 97 255
167 167 0
167 167 12
167 167 45
167 167 97
167 167 167
167 167 255
167 255 0
167 255 12
167 255 45
167 255 97
167 255 167
167 255 255
255 0 0
255 0 12
255 0 45
255 0 97
255 0 167
255 0 255
255 12 0
255 12 12
255 12 45
255 12 97
255 12 167
255 12 255
255 45 0
255 45 12
255 45 45
255 45 97
255 45 167
255 45 255
255 97 0
255 97 12
255 97 45
255 97 97
255 97 167
255 97 255
255 167 0
255 167 12
255 167 45
255 167 97
255 167 167
255 167 255
255 255 0
255 255 12
255 255 45
255 255 97
255 255 167
255 255 255
